<svg width="86" height="75" viewBox="0 0 86 75" fill="none" xmlns="http://www.w3.org/2000/svg">
<g clip-path="url(#clip0_111_1481)">
<path d="M37.6211 63.3602C40.0097 66.5274 43.1144 69.0838 46.6811 70.8202C50.3472 72.6261 54.3793 73.5653 58.4661 73.5653C62.5529 73.5653 66.585 72.6261 70.2511 70.8202C83.2511 64.4102 84.4711 50.9002 84.4711 50.9002C86.1711 24.4902 58.4611 0.990234 58.4611 0.990234C54.8109 4.21566 51.4236 7.72677 48.3311 11.4902" stroke="white" stroke-linecap="round" stroke-linejoin="round"/>
<path d="M41.3281 21.1703C36.0481 29.6203 31.7581 40.0103 32.4481 50.9003" stroke="white" stroke-linecap="round" stroke-linejoin="round"/>
<path d="M33.4897 7.25023C33.4917 8.09715 33.2423 8.92563 32.7732 9.63078C32.3041 10.3359 31.6364 10.8861 30.8545 11.2116C30.0726 11.537 29.2117 11.6232 28.3808 11.4592C27.5499 11.2952 26.7864 10.8883 26.1868 10.2902C25.5872 9.69201 25.1786 8.92941 25.0127 8.0989C24.8467 7.26839 24.9309 6.40731 25.2545 5.62466C25.5782 4.84201 26.1267 4.17297 26.8308 3.70223C27.5349 3.2315 28.3627 2.98023 29.2097 2.98022C30.3431 2.98022 31.4302 3.42978 32.2326 4.23027C33.0349 5.03076 33.487 6.11683 33.4897 7.25023Z" stroke="white" stroke-linecap="round" stroke-linejoin="round"/>
<path d="M33.4897 61.0703C33.4897 61.9168 33.2387 62.7443 32.7684 63.4481C32.2981 64.152 31.6296 64.7006 30.8476 65.0245C30.0655 65.3484 29.2049 65.4332 28.3747 65.2681C27.5445 65.1029 26.7818 64.6953 26.1833 64.0967C25.5847 63.4981 25.1771 62.7355 25.0119 61.9053C24.8468 61.075 24.9315 60.2145 25.2555 59.4324C25.5794 58.6503 26.128 57.9819 26.8318 57.5116C27.5357 57.0413 28.3632 56.7903 29.2097 56.7903C29.7721 56.789 30.3293 56.8988 30.8491 57.1134C31.369 57.328 31.8414 57.6432 32.239 58.0409C32.6367 58.4386 32.952 58.911 33.1666 59.4309C33.3812 59.9507 33.491 60.5079 33.4897 61.0703Z" stroke="white" stroke-linecap="round" stroke-linejoin="round"/>
<path d="M9.99749 20.6703C9.99947 21.5176 9.74988 22.3465 9.28035 23.0519C8.81082 23.7572 8.14247 24.3074 7.36 24.6326C6.57752 24.9577 5.71613 25.0433 4.88496 24.8785C4.0538 24.7137 3.29026 24.3059 2.69108 23.7067C2.09191 23.1075 1.68408 22.344 1.51925 21.5128C1.35443 20.6816 1.44003 19.8202 1.76521 19.0378C2.09039 18.2553 2.64052 17.587 3.34589 17.1174C4.05127 16.6479 4.88014 16.3983 5.72749 16.4003C6.85996 16.4003 7.94606 16.8502 8.74684 17.6509C9.54762 18.4517 9.99749 19.5378 9.99749 20.6703Z" stroke="white" stroke-linecap="round" stroke-linejoin="round"/>
<path d="M9.9975 47.4103C9.9975 48.2572 9.74623 49.0851 9.27549 49.7891C8.80476 50.4932 8.13572 51.0418 7.35307 51.3654C6.57042 51.6891 5.70934 51.7732 4.87883 51.6073C4.04832 51.4413 3.28572 51.0327 2.68755 50.4331C2.08938 49.8336 1.68254 49.07 1.51853 48.2391C1.35451 47.4082 1.4407 46.5473 1.76617 45.7654C2.09165 44.9835 2.64179 44.3158 3.34694 43.8467C4.0521 43.3776 4.88058 43.1283 5.7275 43.1303C6.8609 43.1329 7.94696 43.585 8.74746 44.3874C9.54795 45.1897 9.99751 46.2769 9.9975 47.4103Z" stroke="white" stroke-linecap="round" stroke-linejoin="round"/>
<path d="M56.2709 47.4102C56.2709 48.255 56.0209 49.0809 55.5523 49.7838C55.0838 50.4868 54.4177 51.0353 53.6379 51.3604C52.8582 51.6855 51.9997 51.7726 51.1706 51.6106C50.3414 51.4487 49.5788 51.045 48.9786 50.4505C48.3785 49.8559 47.9677 49.097 47.7981 48.2694C47.6285 47.4418 47.7075 46.5826 48.0254 45.7998C48.3432 45.0171 48.8855 44.3459 49.5841 43.8709C50.2827 43.3958 51.1062 43.1381 51.9509 43.1302C52.5164 43.1249 53.0772 43.2317 53.6011 43.4444C54.125 43.6572 54.6016 43.9716 55.0032 44.3695C55.4049 44.7675 55.7238 45.2411 55.9414 45.763C56.1589 46.2849 56.271 46.8448 56.2709 47.4102Z" stroke="white" stroke-linecap="round" stroke-linejoin="round"/>
<path d="M56.2709 20.6702C56.2729 21.5154 56.0245 22.3423 55.5572 23.0466C55.0898 23.7508 54.4244 24.3009 53.6449 24.6276C52.8653 24.9542 52.0065 25.0427 51.1767 24.8819C50.3469 24.7211 49.5833 24.3182 48.9822 23.724C48.3811 23.1298 47.9693 22.371 47.7989 21.5431C47.6284 20.7153 47.7069 19.8555 48.0244 19.0722C48.3419 18.2889 48.8843 17.6171 49.5831 17.1416C50.2818 16.6661 51.1057 16.4081 51.9509 16.4002C52.5155 16.3949 53.0755 16.5014 53.5988 16.7135C54.122 16.9256 54.5981 17.2391 54.9997 17.636C55.4012 18.0329 55.7203 18.5054 55.9385 19.0261C56.1566 19.5469 56.2696 20.1056 56.2709 20.6702Z" stroke="white" stroke-linecap="round" stroke-linejoin="round"/>
<path d="M25.2494 8.85022L9.35938 18.4302" stroke="white" stroke-linecap="round" stroke-linejoin="round"/>
<path d="M33.4883 8.9502L48.1183 17.7802" stroke="white" stroke-linecap="round" stroke-linejoin="round"/>
<path d="M32.9102 58.8003L48.1202 49.6302" stroke="white" stroke-linecap="round" stroke-linejoin="round"/>
<path d="M25.25 59.0502L10 49.8502" stroke="white" stroke-linecap="round" stroke-linejoin="round"/>
<path d="M5.73047 24.9502V42.4402" stroke="white" stroke-linecap="round" stroke-linejoin="round"/>
<path d="M52.5703 24.9502V42.4402" stroke="white" stroke-linecap="round" stroke-linejoin="round"/>
</g>
<defs>
<clipPath id="clip0_111_1481">
<rect width="84.1" height="73.58" fill="white" transform="translate(0.949219 0.490234)"/>
</clipPath>
</defs>
</svg>
