<svg width="276" height="325" viewBox="0 0 276 325" fill="none" xmlns="http://www.w3.org/2000/svg">
<path d="M0.5 0.107666H275.499V290.015L138.901 324.033L0.5 290.015V0.107666Z" fill="#891017"/>
<path fill-rule="evenodd" clip-rule="evenodd" d="M44.8516 173.34V136.764H54.0126V153.027L66.4128 136.764H76.6536L63.7135 153.635L79.8929 173.256H67.9819L53.9957 156.115V173.256L44.8516 173.34Z" fill="white"/>
<path fill-rule="evenodd" clip-rule="evenodd" d="M82.0547 173.34V136.764H91.4519V173.273L82.0547 173.34Z" fill="white"/>
<path fill-rule="evenodd" clip-rule="evenodd" d="M97.0006 155.119C96.9806 152.541 97.4678 149.985 98.4347 147.595C99.432 145.264 100.896 143.163 102.737 141.42C104.536 139.704 106.674 138.382 109.013 137.54C114.109 135.831 119.624 135.831 124.72 137.54C127.057 138.398 129.197 139.718 131.013 141.42C132.849 143.16 134.302 145.263 135.281 147.595C137.21 152.42 137.21 157.802 135.281 162.627C134.328 164.978 132.871 167.092 131.013 168.819C129.193 170.549 127.04 171.892 124.686 172.767C119.619 174.51 114.114 174.51 109.047 172.767C106.698 171.89 104.552 170.547 102.737 168.819C100.888 167.12 99.4367 165.035 98.4853 162.711C97.4845 160.306 96.9795 157.724 97.0006 155.119ZM106.415 155.119C106.297 158.073 107.353 160.954 109.35 163.133C110.329 164.132 111.497 164.925 112.786 165.467C114.075 166.009 115.46 166.288 116.858 166.288C118.256 166.288 119.641 166.009 120.93 165.467C122.219 164.925 123.387 164.132 124.366 163.133C126.357 160.95 127.411 158.072 127.301 155.119C127.405 152.157 126.353 149.271 124.366 147.072C123.387 146.073 122.219 145.28 120.93 144.738C119.641 144.196 118.256 143.917 116.858 143.917C115.46 143.917 114.075 144.196 112.786 144.738C111.497 145.28 110.329 146.073 109.35 147.072C107.357 149.267 106.303 152.156 106.415 155.119Z" fill="white"/>
<path fill-rule="evenodd" clip-rule="evenodd" d="M141.491 170.506V162.374C143.679 163.806 146.008 165.01 148.442 165.968C150.2 166.61 152.053 166.953 153.925 166.98C155.334 167.062 156.741 166.777 158.008 166.153C158.383 165.923 158.701 165.611 158.938 165.24C159.174 164.869 159.324 164.449 159.374 164.011C159.424 163.574 159.375 163.131 159.228 162.716C159.082 162.301 158.844 161.924 158.531 161.615C157.307 160.766 155.949 160.127 154.515 159.725C149.302 157.886 145.742 156.03 143.768 154.124C142.801 153.179 142.041 152.043 141.535 150.788C141.03 149.533 140.791 148.188 140.833 146.836C140.807 145.356 141.14 143.892 141.804 142.57C142.468 141.248 143.443 140.106 144.646 139.244C147.554 137.178 151.07 136.144 154.633 136.308C156.73 136.317 158.819 136.566 160.859 137.05C162.988 137.587 165.057 138.339 167.034 139.294V146.785C164.919 145.679 162.712 144.759 160.437 144.035C158.713 143.478 156.917 143.177 155.106 143.141C153.737 143.067 152.37 143.327 151.124 143.9C150.715 144.093 150.368 144.398 150.126 144.781C149.884 145.163 149.756 145.607 149.758 146.06C149.783 146.49 149.907 146.909 150.121 147.284C150.334 147.658 150.632 147.978 150.989 148.219C152.115 149.055 153.369 149.705 154.701 150.142C155.038 150.294 155.578 150.463 156.27 150.75C158.868 151.649 161.38 152.778 163.778 154.124C165.287 155.033 166.522 156.333 167.354 157.886C168.201 159.546 168.624 161.389 168.586 163.251C168.645 164.79 168.327 166.32 167.659 167.708C166.992 169.096 165.995 170.3 164.756 171.214C161.632 173.317 157.904 174.336 154.144 174.116C151.926 174.119 149.718 173.818 147.581 173.222C145.437 172.597 143.388 171.683 141.491 170.506Z" fill="white"/>
<path fill-rule="evenodd" clip-rule="evenodd" d="M173.984 173.34V136.764H183.112V151.408H199.375V136.764H208.52V173.273H199.375V158.477H183.112V173.273L173.984 173.34Z" fill="white"/>
<path fill-rule="evenodd" clip-rule="evenodd" d="M215.926 173.34V136.764H225.357V173.273L215.926 173.34Z" fill="white"/>
<path fill-rule="evenodd" clip-rule="evenodd" d="M136.465 106.396L164.741 95.8346C165.432 90.9977 164.94 86.0654 163.307 81.4604L136.685 105.131L158.954 73.396C156.62 70.3298 153.722 67.7361 150.418 65.7534L135.993 104.439L140.531 62.0249C136.694 61.32 132.756 61.3773 128.941 62.1936L135.284 104.591L119.24 66.1245C116.087 68.101 113.33 70.6469 111.108 73.6322L134.643 105.164L106.367 83.2319C105.598 85.9376 105.207 88.7365 105.203 91.5493C105.211 92.7105 105.279 93.8705 105.406 95.0247L134.778 106.396H109.05C111.668 110.99 115.456 114.81 120.028 117.466C124.6 120.123 129.794 121.523 135.082 121.523C140.37 121.523 145.564 120.123 150.136 117.466C154.708 114.81 158.496 110.99 161.114 106.396H136.465Z" fill="white"/>
<path d="M229.136 105.232H41.0234V107.391H229.136V105.232Z" fill="white"/>
<path d="M66.6 200.013H41.0234V202.173H66.6V200.013Z" fill="white"/>
<path d="M228.713 200.013H203.137V202.173H228.713V200.013Z" fill="white"/>
<path fill-rule="evenodd" clip-rule="evenodd" d="M88.6683 209.074V204.839C89.8037 205.582 91.0137 206.204 92.2787 206.695C93.1947 207.045 94.1662 207.228 95.1468 207.235C95.8797 207.277 96.6114 207.132 97.2726 206.813C97.502 206.689 97.6918 206.503 97.8202 206.276C97.9485 206.049 98.0102 205.791 97.998 205.531C98.0069 205.328 97.9707 205.126 97.8919 204.939C97.8131 204.753 97.6938 204.586 97.5425 204.451C96.9134 203.991 96.2038 203.654 95.4505 203.455C93.4287 202.864 91.5467 201.871 89.9168 200.537C89.4106 200.046 89.0125 199.455 88.7481 198.801C88.4837 198.147 88.3589 197.446 88.3815 196.741C88.3695 195.969 88.5461 195.206 88.896 194.518C89.2459 193.83 89.7584 193.238 90.3892 192.793C91.8938 191.713 93.7186 191.172 95.5686 191.258C96.6603 191.269 97.7471 191.404 98.8079 191.663C99.9207 191.926 101.001 192.311 102.03 192.81V196.707C100.942 196.148 99.814 195.669 98.656 195.273C97.758 195.002 96.8271 194.854 95.8892 194.834C95.1759 194.789 94.4625 194.922 93.814 195.222C93.5957 195.317 93.4113 195.476 93.2848 195.678C93.1584 195.88 93.0958 196.115 93.1054 196.353C93.1224 196.573 93.187 196.786 93.2948 196.978C93.4026 197.171 93.551 197.337 93.7297 197.466C94.3196 197.903 94.9743 198.244 95.6698 198.478L96.4965 198.765C97.8352 199.231 99.1378 199.795 100.394 200.452C101.168 200.974 101.777 201.705 102.148 202.561C102.585 203.423 102.8 204.38 102.773 205.345C102.794 206.143 102.627 206.936 102.284 207.657C101.941 208.378 101.432 209.008 100.799 209.495C99.1684 210.589 97.2242 211.116 95.2649 210.997C92.9373 211.013 90.6517 210.376 88.6683 209.158V209.074Z" fill="white"/>
<path fill-rule="evenodd" clip-rule="evenodd" d="M110.164 210.575V195.104H103.922V191.561H121.535V195.104H115.226V210.575H110.164Z" fill="white"/>
<path fill-rule="evenodd" clip-rule="evenodd" d="M122.648 201.093C122.637 199.747 122.889 198.412 123.39 197.162C123.906 195.953 124.664 194.862 125.617 193.957C126.582 193.045 127.733 192.355 128.991 191.932C130.289 191.465 131.661 191.237 133.04 191.257C134.447 191.237 135.846 191.465 137.174 191.932C138.388 192.383 139.501 193.071 140.447 193.957C141.4 194.862 142.158 195.953 142.674 197.162C143.664 199.683 143.664 202.486 142.674 205.007C142.161 206.214 141.403 207.3 140.447 208.196C139.472 209.094 138.324 209.783 137.073 210.22C135.761 210.702 134.37 210.937 132.973 210.912C131.594 210.93 130.223 210.701 128.924 210.237C127.673 209.791 126.526 209.096 125.55 208.196C124.598 207.299 123.845 206.213 123.339 205.007C122.849 203.762 122.614 202.431 122.648 201.093ZM127.54 201.093C127.486 202.635 128.037 204.137 129.076 205.277C129.562 205.822 130.161 206.254 130.831 206.546C131.501 206.837 132.226 206.98 132.956 206.964C133.694 206.981 134.427 206.84 135.105 206.549C135.783 206.257 136.391 205.824 136.887 205.277C137.891 204.101 138.443 202.606 138.443 201.059C138.443 199.513 137.891 198.018 136.887 196.842C136.395 196.29 135.788 195.854 135.108 195.562C134.429 195.271 133.695 195.132 132.956 195.154C132.226 195.139 131.501 195.282 130.831 195.573C130.161 195.864 129.562 196.297 129.076 196.842C128.552 197.414 128.147 198.085 127.884 198.814C127.62 199.544 127.504 200.318 127.54 201.093Z" fill="white"/>
<path fill-rule="evenodd" clip-rule="evenodd" d="M150.809 198.63V210.575H146.102V191.561H150.286L160.408 202.898V191.561H165.098V210.575H161.387L150.809 198.63Z" fill="white"/>
<path fill-rule="evenodd" clip-rule="evenodd" d="M168.91 210.575V191.561H181.631V195.07H173.668V198.934H181.277V202.561H173.668V207.099H181.867V210.659L168.91 210.575Z" fill="white"/>
</svg>
