<svg width="1922" height="220" viewBox="0 0 1922 220" fill="none" xmlns="http://www.w3.org/2000/svg">
<mask id="mask0_8_16" style="mask-type:luminance" maskUnits="userSpaceOnUse" x="0" y="0" width="1922" height="220">
<path d="M1921.21 0H0V219.74H1921.21V0Z" fill="white"/>
</mask>
<g mask="url(#mask0_8_16)">
<path d="M1923.69 455.26C1841.3 357.62 1690.62 335.93 1690.62 335.93C1690.62 335.93 1769.24 370.93 1785.68 402.39C1785.68 402.39 1731.36 387.39 1706.35 392.39C1706.35 392.39 1731.87 399.34 1738.63 409.26C1705.43 409.72 1684.95 427.26 1656.21 440.49C1625.72 454.49 1592.59 465.26 1558.65 464.06C1545.75 463.6 1532.49 461 1521.16 454.57C1518.75 453.19 1512.69 446.57 1510.26 446.3C1510.32 446.3 1560.14 452.45 1584.79 429.3C1560.49 432.57 1534.58 433.06 1511.07 425.16C1490.07 418.11 1461.07 397.16 1464.66 371.65C1465.91 362.76 1471.96 355.11 1479.28 349.91C1490.14 342.2 1504.15 337.82 1516.54 333.15C1530.59 327.85 1544.85 323.183 1559.33 319.15C1560.88 318.71 1564.45 317.84 1569.67 316.53C1564.49 336.39 1561.77 366.87 1572.67 408.12C1572.67 408.12 1565.48 341 1662.67 289C1665.76 287.94 1668.87 286.84 1672.03 285.72C1669.41 295.38 1666.96 315.94 1679.95 345.09C1679.95 345.09 1667.25 298.54 1742.3 257.09C1762.73 247.696 1782.6 237.132 1801.82 225.45C1801.82 225.45 1837.49 265 1818.11 336.34C1818.11 336.34 1942.11 254.16 1807.46 119.55C1814.85 104.336 1827.5 92.3151 1843.07 85.7127C1858.64 79.1103 1876.08 78.374 1892.15 83.64C1901.23 86.6224 1910.05 90.3552 1918.52 94.8C1875.2 39.82 1793 65.61 1793 65.61C1830.31 23.16 1951 76.16 1951 76.16C1853.58 -28.11 1733.12 40.16 1733.12 40.16C1741.42 25.78 1771.83 14.74 1771.83 14.74C1731.91 13.74 1664.13 53.93 1648.5 63.55C1649.77 55.44 1650.25 50.04 1650.25 50.04C1676.07 26.52 1683.25 9.04004 1683.25 9.04004C1625.94 50.67 1526.25 59.67 1526.25 59.67C1514.56 80.19 1503.93 79 1494 82.45C1484.07 85.9 1466 76.56 1466 76.56C1439.58 122.3 1496.66 134.15 1496.66 134.15C1496.66 134.15 1492.66 119.26 1505.41 112.59C1515.68 107.23 1534.69 118.16 1553.03 118.82C1553.03 118.82 1533.03 176.47 1495.48 156.51C1495.48 156.51 1491.48 180.73 1528.89 187.36C1528.89 187.36 1538.11 166.16 1547.05 159.67C1555.99 153.18 1586.55 141.93 1609.2 138.26C1616.45 137.09 1622.48 132.32 1627.48 125.57C1648.88 136 1659.93 172 1659.93 172C1665.6 156.44 1650.73 126 1650.73 126C1657.1 128.12 1675.13 141.91 1675.13 141.91C1651.08 119.28 1663.74 111.57 1663.74 111.57C1663.74 111.57 1714.02 115.14 1705.74 159.22C1699.14 194.22 1605.89 226.89 1525.54 227C1516.33 227.029 1507.13 226.575 1497.97 225.64C1487.65 224.624 1477.44 222.741 1467.44 220.01C1467.44 220.01 1497.87 239.11 1522.15 240.39C1522.15 240.39 1284.56 287.53 1370.94 472.39C1370.94 472.39 1372.63 434.15 1383.55 421.29C1383.55 421.29 1430.48 505.5 1386.77 588.43C1386.77 588.43 1422.47 571.67 1450.85 485.9C1450.85 485.9 1481.12 530.68 1554.91 537.62C1554.91 537.62 1530.58 522.48 1525.4 506.08C1525.4 506.08 1668.58 562.21 1698.77 637.26C1698.77 637.26 1704.37 559.06 1610.4 506.08C1779.4 465.69 1818.92 551.98 1818.92 551.98C1802.27 493.46 1772.92 467.91 1758.63 458.5C1785.63 451.5 1811.08 447.12 1824.28 450.55C1832.44 452.681 1840.2 456.1 1847.28 460.68C1863.28 471.03 1883.42 497.44 1885.35 523.11C1885.35 523.11 1899.22 513.65 1901.11 499.11C1901.11 499.11 1949.92 561.36 1904.11 626.39C1904 626.48 2006.07 552.9 1923.69 455.26ZM1547.41 79.83C1547.41 79.83 1574.28 58.89 1582.49 71.91C1590.7 84.93 1547.41 79.83 1547.41 79.83Z" fill="#710521"/>
<path d="M1659 -42.25C1659 -42.25 1629.74 22.07 1522.07 37.29C1522.11 37.29 1697.08 36.8 1659 -42.25Z" fill="#710521"/>
<g style="mix-blend-mode:multiply" opacity="0.35">
<path d="M1138.34 -3.26978C909.51 -102.74 627 -10.1198 627 -10.1198C627 -10.1198 795 -16.9698 851 23.8302C851 23.8302 742.93 44.6402 703.48 75.0802C703.48 75.0802 754.17 65.0802 774.61 76.6302C716.9 106.21 696.29 154.71 657.43 202.73C616.2 253.73 567.53 301.23 507.09 328.54C484.09 338.92 458.65 345.86 433.26 344.42C427.84 344.11 411.52 337.82 407.01 339.42C407.11 339.42 499.64 306.96 522.76 245.13C483.06 271.93 438.14 295.23 390.14 301.78C347.36 307.62 278.38 296.15 262.53 248.37C257 231.72 260.96 213.1 269.27 197.65C281.59 174.73 302.27 154.92 319.95 136C339.95 114.554 360.863 94.0036 382.69 74.3502C385.03 72.2402 390.52 67.6302 398.52 60.8202C406.66 100.06 428.32 155.82 483.23 218.5C483.23 218.5 412.47 107.24 537.6 -68.0598C542.073 -72.5931 546.577 -77.2131 551.11 -81.9198C554.92 -62.7298 568.44 -24.6198 616.45 15.1402C616.45 15.1402 553.87 -55.3298 649.33 -192.86C676.948 -227.024 702.577 -262.75 726.09 -299.86C726.09 -299.86 822.8 -261.56 850.7 -119.86C850.7 -119.86 996.44 -371.14 644.16 -490.06C643.73 -558.33 693.67 -616.76 761.26 -626.34C779.746 -628.992 798.42 -630.102 817.09 -629.66C693.38 -688.37 571.81 -572 571.81 -572C600.32 -678.59 857.4 -690.39 857.4 -690.39C596.51 -788.46 444.86 -564.55 444.86 -564.55C446.91 -596.92 490.57 -642.6 490.57 -642.6C419.85 -609.7 336.05 -480.6 317.02 -450.26C312.21 -465.57 308.38 -475.43 308.38 -475.43C333.17 -538.98 330.54 -575.86 330.54 -575.86C266.32 -453.29 99.59 -351.11 99.59 -351.11C97.16 -305.11 77.47 -298.11 63.13 -283.33C48.79 -268.55 9.00001 -269.34 9.00001 -269.34C2.40001 -166.34 112.58 -195.12 112.58 -195.12C112.58 -195.12 92.58 -217.67 109.2 -240.44C122.53 -258.72 165.28 -256.06 197.95 -270.8C197.95 -270.8 212.95 -152.6 129.88 -154.96C129.88 -154.96 143.95 -109.12 215.12 -129.96C215.12 -129.96 212.88 -175.07 222.9 -194.17C232.92 -213.27 276.66 -259.46 313.12 -285.52C324.79 -293.85 331.21 -307.42 334.12 -323.52C380.7 -323.83 431.22 -270.45 431.22 -270.45C427.66 -302.59 375.29 -342.92 375.29 -342.92C388.29 -344.72 431.77 -336.22 431.77 -336.22C370 -355 385.48 -379.46 385.48 -379.46C385.48 -379.46 476.57 -416.79 500.24 -332.46C519.04 -265.46 384.13 -127.46 243.6 -57.6498C227.509 -49.61 211.007 -42.4234 194.16 -36.1198C175.219 -28.9641 155.71 -23.4113 135.84 -19.5198C135.84 -19.5198 205.67 -12.4598 249.27 -31.2598C249.27 -31.2598 -125.73 257.18 185.73 505.92C185.73 505.92 155.53 437.52 163.52 405.55C163.52 405.55 318.64 512.26 314.01 695.29C314.01 695.29 362.01 635.01 337.31 460.29C337.31 460.29 429.1 512.42 564.31 460.6C564.31 460.6 508.61 455.2 485.31 430.99C485.31 430.99 784.56 405.12 902.45 510.3C902.45 510.3 844.45 368.58 634.09 357.3C894.81 140.14 1038.82 256.89 1038.82 256.89C958.95 168.89 885.48 149.6 852.27 145.53C893.52 109.88 934.27 80.1502 960.27 74.7302C976.399 71.3683 992.963 70.6187 1009.33 72.5102C1046.33 76.7502 1104.44 105.51 1130.07 148.77C1130.07 148.77 1146.15 120.19 1136.89 93.1702C1136.89 93.1702 1276.28 159.82 1252.37 313.4C1252.36 313.45 1367.17 96.2102 1138.34 -3.26978ZM154.34 -334.27C154.34 -334.27 183.23 -394.2 208.87 -378.54C234.51 -362.88 154.33 -334.22 154.33 -334.22L154.34 -334.27Z" fill="#710521"/>
</g>
</g>
</svg>
